<svg xmlns="http://www.w3.org/2000/svg" width="200" height="36" viewBox="0 0 200 36">
  <g id="그룹_95063" data-name="그룹 95063" transform="translate(-157 -39)">
    <g id="사각형_84994" data-name="사각형 84994" transform="translate(157 39)" fill="#fff" stroke="#707070" stroke-width="1" opacity="0">
      <rect width="200" height="36" stroke="none"/>
      <rect x="0.5" y="0.5" width="199" height="35" fill="none"/>
    </g>
    <g id="그룹_95060" data-name="그룹 95060" transform="translate(23203.861 24345.148)">
      <path id="패스_91019" data-name="패스 91019" d="M98.486,14.448a8.443,8.443,0,0,0-3.943-.406,11.186,11.186,0,0,1-2.621-7.209c0-.28.012-.561.032-.84a12.351,12.351,0,0,0,2.837.33,12.364,12.364,0,0,0,2.25-.206l.09-.017-.189-1.021-.09.017a11.328,11.328,0,0,1-2.061.189A11.182,11.182,0,0,1,85.314.077L85.265,0l-.876.558.049.077a12.246,12.246,0,0,0,5.333,4.62A12.358,12.358,0,0,0,84.59,8.635a12.147,12.147,0,0,0-2.835,5.311A8.663,8.663,0,1,0,90.32,24.9a10.6,10.6,0,0,0,.3-1.995,6.782,6.782,0,0,1,.507-2.439c.034-.071.071-.143.109-.213a4.935,4.935,0,1,1,1.162,6.12l-.512-.432-.255.619a10.45,10.45,0,0,1-.975,1.828c-.1.156-.215.312-.34.478l-.3.393.394.293a8.581,8.581,0,0,0,5.159,1.708,8.659,8.659,0,0,0,2.914-16.813M85.922,18.643a10.453,10.453,0,0,1,.975-1.828c.1-.156.216-.312.34-.478l.3-.393-.394-.293a8.571,8.571,0,0,0-4.322-1.667,11.121,11.121,0,0,1,2.542-4.65A11.3,11.3,0,0,1,90.912,6c-.019.277-.029.556-.029.833a12.222,12.222,0,0,0,2.511,7.437,8.924,8.924,0,0,0-2.424,1.055,9.087,9.087,0,0,0-4.062,7.47,5.05,5.05,0,0,1-4.929,4.74,4.933,4.933,0,1,1,3.175-8.7l.512.432Z" transform="translate(-23120.182 -24306.148)" fill="#c01"/>
      <path id="패스_91020" data-name="패스 91020" d="M5.247,698.332a5.775,5.775,0,0,0,8.167,8.167l2.515,2.514a9.331,9.331,0,1,1,0-13.2l-2.515,2.515a5.775,5.775,0,0,0-8.167,0" transform="translate(-23001.402 -24989.855)" fill="#1a1311"/>
      <path id="패스_91021" data-name="패스 91021" d="M132.177,693.085h3.556v18.662h-3.556v-7.552h-9.27v7.552h-3.556V693.085h3.556v7.552h9.27Z" transform="translate(-23099.139 -24989.855)" fill="#1a1311"/>
      <path id="패스_91022" data-name="패스 91022" d="M248.118,693.085H262.8v3.554H251.675v4H262.8v3.554H251.675v4H262.8v3.556H248.118Z" transform="translate(-23204.588 -24989.855)" fill="#1a1311"/>
      <path id="패스_91023" data-name="패스 91023" d="M380.452,711.747h-5.03l-4.976-4.976h-3.558v4.976h-3.556V693.085h9.54c.083,0,.164,0,.246,0A6.843,6.843,0,0,1,375.1,706.4Zm-7.58-8.532a3.287,3.287,0,0,0,0-6.574h-5.983v6.575Z" transform="translate(-23298.941 -24989.855)" fill="#1a1311"/>
      <rect id="사각형_84993" data-name="사각형 84993" width="3.556" height="18.662" transform="translate(-22912.719 -24296.77)" fill="#1a1311"/>
      <path id="패스_91024" data-name="패스 91024" d="M555.333,693.11l-6.412,18.659H545.16L538.75,693.11h3.76l4.531,13.186,4.531-13.186Z" transform="translate(-23442.592 -24989.877)" fill="#1a1311"/>
      <path id="패스_91025" data-name="패스 91025" d="M670.484,693.085h3.556v10.47a8.191,8.191,0,1,1-16.382,0v-10.47h3.556v10.47a4.635,4.635,0,1,0,9.27,0Z" transform="translate(-23539.969 -24989.855)" fill="#1a1311"/>
    </g>
  </g>
</svg>
